<?xml version="1.0" encoding="utf-8"?>
<!-- Generator: Adobe Illustrator 19.0.0, SVG Export Plug-In . SVG Version: 6.00 Build 0)  -->
<svg version="1.1" id="Layer_1" xmlns="http://www.w3.org/2000/svg" xmlns:xlink="http://www.w3.org/1999/xlink" x="0px" y="0px"
	 viewBox="0 0 320 40" enable-background="new 0 0 320 40" xml:space="preserve">
<g id="XMLID_28_">
	<path id="XMLID_70_" fill="#1D1D1B" d="M10.7,29.4h3.5v2.9H1.6v-2.9h4v-20h-4V6.5h12.7v2.9h-3.6v10.4L20.9,9.4h-3.3V6.5h10.6v2.9
		h-3.2l-7.6,7.5l9.1,12.5h3v2.9H17.3v-2.9h3.1l-6.4-9.2l-3.3,3.2V29.4z"/>
	<path id="XMLID_68_" fill="#1D1D1B" d="M31.8,26.6V17h-2.8v-2.9h7.3v11.4c0,1.3,0.2,2.4,0.9,3c0.4,0.4,1.1,0.7,1.9,0.7
		c2,0,4.2-2,4.2-5.2v-7h-2.8v-2.9H48v15.3h2.8v2.9h-7.2v-4.7c-1.7,3.3-3.8,5-6.7,5C33.5,32.6,31.8,30.3,31.8,26.6z"/>
	<path id="XMLID_66_" fill="#1D1D1B" d="M52.8,29.4h2.8V17h-2.8v-2.9h7.2v4.7c1.7-3.2,3.8-5,6.7-5c3.3,0,5.1,2.4,5.1,6v9.6h2.8v2.9
		h-9.8v-2.9h2.4v-8.5c0-1.3-0.3-2.3-0.9-2.9c-0.5-0.5-1.1-0.7-2-0.7c-2,0-4.2,2-4.2,5.2v7h2.4v2.9h-9.7V29.4z"/>
	<path id="XMLID_62_" fill="#1D1D1B" d="M84.7,25.5c-0.8,0-1.7-0.1-2.4-0.1c-1.3,0-1.9,0.7-1.9,1.5c0,0.9,0.7,1.5,2.7,1.5H88
		c4.4,0,6.2,1.9,6.2,4.6C94.2,36.3,91,39,84,39c-5.3,0-8.3-1.6-8.3-4c0-1.7,1.6-3.1,4-3.5v-0.2c-2.2-0.6-3.1-1.8-3.1-3.3
		c0-1.6,1.7-3.1,3.9-3.5c-2.2-0.8-3.7-2.4-3.7-4.9c0-3.6,3-5.9,7.6-5.9c1.1,0,2.2,0.2,3.1,0.4c1.1-2.2,2.9-3.8,5.1-3.8
		c1.9,0,2.9,1.1,2.9,2.5c0,1.2-0.9,2.2-2.1,2.2c-1.2,0-1.9-0.7-1.9-1.8c0-0.1,0-0.3,0-0.4c-0.8,0-1.7,0.8-2.4,2.1
		c1.8,1,2.9,2.6,2.9,4.6C92.3,23.4,89.3,25.5,84.7,25.5z M90.2,34c0-1.1-0.7-1.9-2.9-1.9h-4.6c-2.3,0-3.3,0.8-3.3,2.2
		c0,1.3,1,2.4,5,2.4C88.1,36.7,90.2,35.7,90.2,34z M87.7,19.7c0-2.4-1.1-3.9-3.2-3.9c-2,0-3,1.2-3,4c0,2.7,1.2,3.9,3.3,3.9
		C86.8,23.6,87.7,22.3,87.7,19.7z"/>
	<path id="XMLID_60_" fill="#1D1D1B" d="M95.4,29.4h3.1V8.3h-3.1V5.2h7.7v24.2h3.1v2.9H95.4V29.4z"/>
	<path id="XMLID_58_" fill="#1D1D1B" d="M108.8,30c0-1.6,1.3-2.9,3-2.9c1.7,0,2.9,1.3,2.9,2.9c0,1.7-1.3,2.9-3,2.9
		C110.1,32.9,108.8,31.7,108.8,30z"/>
	<path id="XMLID_55_" fill="#1D1D1B" d="M124.6,8.3h-2.8V5.2h7.3v12.5c1.2-2.4,3.4-4,5.9-4c2.1,0,3.6,0.7,4.7,1.8
		c1.7,1.7,2.4,4.2,2.4,7.6c0,3.1-0.9,5.8-2.6,7.5c-1.2,1.2-3,2-4.8,2c-3,0-4.9-1.6-6.2-3.8l-1.5,3.7h-2.5V8.3z M137.3,23.2
		c0-4.2-1.3-6.5-3.8-6.5c-2.7,0-4.5,2.9-4.5,6.9s2,6.2,4.6,6.2C135.9,29.9,137.3,27.6,137.3,23.2z"/>
	<path id="XMLID_52_" fill="#1D1D1B" d="M145.1,29.4h3.1V17h-3.1v-2.9h7.7v15.3h3.1v2.9h-10.9V29.4z M147.3,8c0-1.7,1.2-3,3-3
		s2.9,1.1,2.9,2.9c0,1.7-1.2,3-2.9,3S147.3,9.7,147.3,8z"/>
	<path id="XMLID_49_" fill="#1D1D1B" d="M159.5,8.3h-2.8V5.2h7.3v12.5c1.2-2.4,3.4-4,5.9-4c2.1,0,3.6,0.7,4.7,1.8
		c1.7,1.7,2.4,4.2,2.4,7.6c0,3.1-0.9,5.8-2.6,7.5c-1.2,1.2-3,2-4.8,2c-3,0-4.9-1.6-6.2-3.8l-1.5,3.7h-2.5V8.3z M172.2,23.2
		c0-4.2-1.3-6.5-3.8-6.5c-2.7,0-4.5,2.9-4.5,6.9s2,6.2,4.6,6.2C170.8,29.9,172.2,27.6,172.2,23.2z"/>
	<path id="XMLID_47_" fill="#1D1D1B" d="M179.4,29.4h3.1V8.3h-3.1V5.2h7.7v24.2h3.1v2.9h-10.8V29.4z"/>
	<path id="XMLID_44_" fill="#1D1D1B" d="M192.4,29.4h3.1V17h-3.1v-2.9h7.7v15.3h3.1v2.9h-10.9V29.4z M194.6,8c0-1.7,1.2-3,3-3
		c1.8,0,2.9,1.1,2.9,2.9c0,1.7-1.2,3-2.9,3C195.9,10.9,194.6,9.7,194.6,8z"/>
	<path id="XMLID_41_" fill="#1D1D1B" d="M205.2,23.3c0-5.6,3.9-9.5,9.4-9.5c5.7,0,9.4,3.8,9.4,9.4c0,5.6-3.9,9.6-9.4,9.6
		C208.9,32.7,205.2,28.9,205.2,23.3z M219,23.2c0-5-1.7-7.1-4.5-7.1c-2.9,0-4.2,2.1-4.2,7.1c0,5,1.6,7.1,4.5,7.1
		C217.6,30.4,219,28.2,219,23.2z"/>
	<path id="XMLID_39_" fill="#1D1D1B" d="M233.5,9.4v4.9h5.9V17h-5.9v10.1c0,1.7,0.5,2.6,2,2.6c1.1,0,1.9-1,2.6-3.3l2,0.7
		c-0.9,3.9-3,5.5-6,5.5c-3.5,0-5.3-2-5.3-5.5V17h-3.4v-2.7h3.5V9.9L233.5,9.4z"/>
	<path id="XMLID_36_" fill="#1D1D1B" d="M246.5,23.7c0.2,4.4,2,6.2,5.3,6.2c2.2,0,3.7-0.9,4.7-3.3h2.4c-0.9,3.9-3.6,6.1-8.1,6.1
		c-5.7,0-9.1-3.9-9.1-9.3c0-5.5,3.9-9.6,9.2-9.6c5.7,0,8.3,4.6,8.1,9.9H246.5z M246.6,21.6h7.9c-0.2-3.5-1.3-5.5-3.8-5.5
		C248.4,16.1,246.9,17.6,246.6,21.6z"/>
	<path id="XMLID_34_" fill="#1D1D1B" d="M273.9,21.3l6.2,8.1h2.1v2.9h-9.2v-2.9h2.2l-4.1-5.6l-2.5,2.4v3.2h2.1v2.9h-9.5v-2.9h2.8
		V8.3h-2.8V5.2h7.3v18.1l6.4-6.3H272v-2.9h9.2V17h-2.8L273.9,21.3z"/>
	<path id="XMLID_31_" fill="#1D1D1B" d="M288.2,23.7c0.2,4.4,2,6.2,5.3,6.2c2.2,0,3.7-0.9,4.7-3.3h2.4c-0.9,3.9-3.6,6.1-8.1,6.1
		c-5.7,0-9.1-3.9-9.1-9.3c0-5.5,3.9-9.6,9.2-9.6c5.7,0,8.3,4.6,8.1,9.9H288.2z M288.3,21.6h7.9c-0.2-3.5-1.3-5.5-3.8-5.5
		C290.1,16.1,288.6,17.6,288.3,21.6z"/>
	<path id="XMLID_29_" fill="#1D1D1B" d="M310.2,9.4v4.9h5.9V17h-5.9v10.1c0,1.7,0.5,2.6,2,2.6c1.1,0,1.9-1,2.6-3.3l2,0.7
		c-0.9,3.9-3,5.5-6,5.5c-3.5,0-5.3-2-5.3-5.5V17h-3.4v-2.7h3.5V9.9L310.2,9.4z"/>
</g>
</svg>
