<svg xmlns="http://www.w3.org/2000/svg" xmlns:xlink="http://www.w3.org/1999/xlink" version="1.1" x="0px" y="0px" width="384px" height="384.017px" viewBox="0 0 384 384.017" enable-background="new 0 0 384 384.017" xml:space="preserve"><path d="M192 0.017c-106.036 0-192 85.964-192 192c0 106.02 85.96 192 192 192c106.036 0 192-85.976 192-192 C384 85.98 298.04 0.02 192 0.017z M192 348.015c-86.023 0-156.004-69.987-156.004-155.998c0-18.007 3.103-35.299 8.746-51.394 l61.013 27.169c-1.643 8.165-2.534 16.682-2.534 25.479c0 76.65 57.21 98.25 93.21 98.247c21.227 0 39.598-6.852 53.979-16.904 c2.733-1.959 5.209-3.93 7.484-5.936l-27.99-34.009c-0.821 0.938-1.678 1.83-2.557 2.63 c-10.887 10.323-22.853 10.323-25.527 10.323c-29.286 0-41.545-30.899-41.709-55.651l168.157 74.87 c0.199 0.04 0.36 0.04 0.53 0.07C302.259 315.21 250.89 348.01 192 348.015z M342.332 231.878l-173.436-77.412 c6.258-11.332 16.218-19.849 31.122-19.849c8.64 0 15.49 2.86 20.89 6.476c2.24 1.62 4.19 3.24 5.83 4.868l31.263-32.178 c-20.998-18.054-44.871-21.28-60.484-21.28c-36.688 0-62.649 15.86-77.952 39.944L61.564 106.58 C89.478 64.11 137.51 36.01 192 36.007c86.022 0 156.01 69.98 156.01 156.01c0 13.925-1.865 27.403-5.303 40.26 C342.566 232.14 342.47 232.02 342.33 231.878z"/></svg>