<svg id="Lager_1" data-name="Lager 1" xmlns="http://www.w3.org/2000/svg" viewBox="0 0 437.61 41.52"><defs><style>.cls-1{fill:#1d1d1b;}</style></defs><title>Kungliga_svart</title><path class="cls-1" d="M85,129.9h4.32v3.55H73.89v-3.6h4.9V105.47h-4.9v-3.6H89.34v3.55H85v12.72l12.43-12.72H93.33v-3.55h13v3.6h-3.94l-9.27,9.17,11.09,15.22h3.7v3.6H93V129.9h3.79L89,118.67l-4,3.89v7.34Z" transform="translate(-73.89 -100.09)"/><path class="cls-1" d="M110.8,126.49V114.78h-3.36v-3.55h9v13.92a5,5,0,0,0,1.1,3.7,3.13,3.13,0,0,0,2.3.82c2.5,0,5.09-2.45,5.09-6.34v-8.54h-3.46v-3.55h9.07V129.9h3.41v3.55h-8.79v-5.71c-2.11,4-4.61,6.1-8.16,6.1C112.91,133.84,110.8,131,110.8,126.49Z" transform="translate(-73.89 -100.09)"/><path class="cls-1" d="M136.38,129.9h3.36V114.78h-3.36v-3.55h8.74v5.71c2.11-3.94,4.61-6,8.21-6,4.08,0,6.29,2.88,6.29,7.3V129.9H163v3.55h-12V129.9h3V119.53a5,5,0,0,0-1.15-3.6,3.15,3.15,0,0,0-2.45-.91c-2.5,0-5.09,2.45-5.09,6.38v8.5h2.93v3.55H136.38V129.9Z" transform="translate(-73.89 -100.09)"/><path class="cls-1" d="M175.41,125.1c-1,0-2.06-.14-2.93-0.14-1.54,0-2.3.91-2.3,1.82s0.82,1.78,3.31,1.78h6c5.42,0,7.54,2.3,7.54,5.57,0,4.18-3.84,7.49-12.43,7.49-6.48,0-10.08-2-10.08-4.94,0-2.06,1.92-3.84,4.9-4.27v-0.24c-2.64-.72-3.74-2.26-3.74-4,0-1.92,2.06-3.79,4.8-4.22-2.74-1-4.46-2.88-4.46-6,0-4.42,3.7-7.15,9.31-7.15a13.07,13.07,0,0,1,3.74.53c1.3-2.74,3.5-4.66,6.24-4.66,2.3,0,3.55,1.34,3.55,3a2.56,2.56,0,0,1-2.59,2.64,2.13,2.13,0,0,1-2.3-2.26,2.16,2.16,0,0,1,0-.53c-1,0-2.11,1-2.88,2.59a6.46,6.46,0,0,1,3.6,5.66C184.67,122.51,181,125.1,175.41,125.1Zm6.67,10.37c0-1.34-.91-2.3-3.55-2.3H173c-2.78,0-4,1-4,2.74,0,1.54,1.25,2.93,6.1,2.93C179.53,138.83,182.08,137.54,182.08,135.47Zm-3-17.47c0-2.88-1.39-4.8-3.94-4.8s-3.7,1.49-3.7,4.85,1.44,4.75,4,4.75S179.1,121.21,179.1,118Z" transform="translate(-73.89 -100.09)"/><path class="cls-1" d="M188.51,129.9h3.84V104.12h-3.84v-3.74h9.41V129.9h3.84v3.55H188.51V129.9Z" transform="translate(-73.89 -100.09)"/><path class="cls-1" d="M204.44,129.9h3.84V114.78h-3.84v-3.55h9.46V129.9h3.84v3.55h-13.3V129.9Zm2.69-26.16a3.5,3.5,0,0,1,3.65-3.65,3.35,3.35,0,0,1,3.6,3.5,3.47,3.47,0,0,1-3.6,3.65A3.42,3.42,0,0,1,207.13,103.74Z" transform="translate(-73.89 -100.09)"/><path class="cls-1" d="M230.12,125.1c-1,0-2.06-.14-2.93-0.14-1.54,0-2.3.91-2.3,1.82s0.82,1.78,3.31,1.78h6c5.42,0,7.54,2.3,7.54,5.57,0,4.18-3.84,7.49-12.43,7.49-6.48,0-10.08-2-10.08-4.94,0-2.06,1.92-3.84,4.9-4.27v-0.24c-2.64-.72-3.74-2.26-3.74-4,0-1.92,2.06-3.79,4.8-4.22-2.74-1-4.46-2.88-4.46-6,0-4.42,3.7-7.15,9.31-7.15a13.07,13.07,0,0,1,3.74.53c1.3-2.74,3.5-4.66,6.24-4.66,2.3,0,3.55,1.34,3.55,3a2.56,2.56,0,0,1-2.59,2.64,2.13,2.13,0,0,1-2.3-2.26,2.16,2.16,0,0,1,0-.53c-1,0-2.11,1-2.88,2.59a6.46,6.46,0,0,1,3.6,5.66C239.39,122.51,235.69,125.1,230.12,125.1Zm6.67,10.37c0-1.34-.91-2.3-3.55-2.3h-5.57c-2.78,0-4,1-4,2.74,0,1.54,1.25,2.93,6.1,2.93C234.25,138.83,236.8,137.54,236.8,135.47Zm-3-17.47c0-2.88-1.39-4.8-3.94-4.8s-3.7,1.49-3.7,4.85,1.44,4.75,4,4.75S233.82,121.21,233.82,118Z" transform="translate(-73.89 -100.09)"/><path class="cls-1" d="M243.9,128a5.44,5.44,0,0,1,1.63-4c1.63-1.63,4-2.35,8.69-3,2.74-.38,3.12-0.43,3.12-1.15v-2.16c0-2.83-1.34-3.94-4.22-3.94a6.46,6.46,0,0,0-3.36.82,2.73,2.73,0,0,1,1.3,2.4,2.83,2.83,0,0,1-3.07,2.78,3,3,0,0,1-3.22-3.07c0-3.74,4.51-5.81,9.7-5.81,5.76,0,8.45,2.54,8.45,7.2V128.8c0,1.06.38,1.49,1.34,1.49,0.62,0,1.2-.62,1.63-2l2,0.91c-1.06,3.17-2.74,4.46-5.38,4.46a4.13,4.13,0,0,1-4.46-4.22h-0.24a7.82,7.82,0,0,1-7.25,4.32C246.49,133.79,243.9,131.44,243.9,128Zm13.44-2.35v-3.12a9.22,9.22,0,0,1-2.16.48c-4.13.67-5.38,1.44-5.38,4a3,3,0,0,0,3.31,3.31A4.5,4.5,0,0,0,257.34,125.63Z" transform="translate(-73.89 -100.09)"/><path class="cls-1" d="M276.73,104.12h-3.41v-3.74h9v15.31a8.13,8.13,0,0,1,7.25-4.85,7.62,7.62,0,0,1,5.76,2.21c2.06,2.06,3,5.18,3,9.26,0,3.74-1.15,7.1-3.22,9.17a8.56,8.56,0,0,1-5.9,2.45c-3.7,0-6-1.92-7.58-4.66l-1.82,4.46h-3V104.12Zm15.46,18.24c0-5.09-1.58-7.92-4.61-7.92-3.26,0-5.52,3.6-5.52,8.4s2.45,7.63,5.57,7.63C290.51,130.48,292.19,127.65,292.19,122.37Z" transform="translate(-73.89 -100.09)"/><path class="cls-1" d="M301.74,129.9h3.84V114.78h-3.84v-3.55h9.46V129.9H315v3.55h-13.3V129.9Zm2.69-26.16a3.5,3.5,0,0,1,3.65-3.65,3.35,3.35,0,0,1,3.6,3.5,3.47,3.47,0,0,1-3.6,3.65A3.42,3.42,0,0,1,304.43,103.74Z" transform="translate(-73.89 -100.09)"/><path class="cls-1" d="M319.35,104.12h-3.41v-3.74h9v15.31a8.13,8.13,0,0,1,7.25-4.85,7.62,7.62,0,0,1,5.76,2.21c2.06,2.06,3,5.18,3,9.26,0,3.74-1.15,7.1-3.22,9.17a8.56,8.56,0,0,1-5.9,2.45c-3.7,0-6-1.92-7.58-4.66l-1.82,4.46h-3V104.12Zm15.46,18.24c0-5.09-1.58-7.92-4.61-7.92-3.26,0-5.52,3.6-5.52,8.4s2.45,7.63,5.57,7.63C333.13,130.48,334.81,127.65,334.81,122.37Z" transform="translate(-73.89 -100.09)"/><path class="cls-1" d="M343.59,129.9h3.84V104.12h-3.84v-3.74H353V129.9h3.84v3.55H343.59V129.9Z" transform="translate(-73.89 -100.09)"/><path class="cls-1" d="M359.53,129.9h3.84V114.78h-3.84v-3.55H369V129.9h3.84v3.55h-13.3V129.9Zm2.69-26.16a3.5,3.5,0,0,1,3.65-3.65,3.35,3.35,0,0,1,3.6,3.5,3.47,3.47,0,0,1-3.6,3.65A3.42,3.42,0,0,1,362.22,103.74Z" transform="translate(-73.89 -100.09)"/><path class="cls-1" d="M375.13,122.46c0-6.82,4.75-11.62,11.47-11.62,7,0,11.47,4.61,11.47,11.42s-4.75,11.67-11.47,11.67C379.59,133.93,375.13,129.28,375.13,122.46Zm16.8-.1c0-6.1-2-8.64-5.52-8.64s-5.14,2.59-5.14,8.64,2,8.69,5.52,8.69S391.93,128.41,391.93,122.37Z" transform="translate(-73.89 -100.09)"/><path class="cls-1" d="M409.64,105.47v6h7.2v3.31h-7.2v12.29c0,2.11.62,3.22,2.5,3.22,1.39,0,2.3-1.25,3.22-4l2.45,0.86c-1.15,4.75-3.65,6.77-7.3,6.77-4.32,0-6.48-2.4-6.48-6.67V114.78h-4.18v-3.31h4.27v-5.38Z" transform="translate(-73.89 -100.09)"/><path class="cls-1" d="M425.58,122.89c0.19,5.42,2.45,7.63,6.43,7.63,2.64,0,4.56-1.15,5.76-4h2.88c-1.1,4.7-4.42,7.39-9.89,7.39-7,0-11.14-4.8-11.14-11.33,0-6.72,4.75-11.76,11.23-11.76,7,0,10.18,5.62,9.94,12H425.58Zm0-2.54h9.6c-0.29-4.32-1.63-6.67-4.66-6.67C427.83,113.68,426,115.45,425.63,120.35Z" transform="translate(-73.89 -100.09)"/><path class="cls-1" d="M459,120l7.54,9.89h2.54v3.55H457.79V130h2.69l-5-6.82-3,2.93V130H455v3.5H443.48V129.9h3.41V104.12h-3.41v-3.74h9v22.08l7.78-7.73h-3.55v-3.5h11.18v3.55h-3.36Z" transform="translate(-73.89 -100.09)"/><path class="cls-1" d="M476.5,122.89c0.19,5.42,2.45,7.63,6.43,7.63,2.64,0,4.56-1.15,5.76-4h2.88c-1.1,4.7-4.42,7.39-9.89,7.39-7,0-11.14-4.8-11.14-11.33,0-6.72,4.75-11.76,11.23-11.76,7,0,10.18,5.62,9.94,12H476.5Zm0-2.54h9.6c-0.29-4.32-1.63-6.67-4.66-6.67C478.76,113.68,476.94,115.45,476.55,120.35Z" transform="translate(-73.89 -100.09)"/><path class="cls-1" d="M503.34,105.47v6h7.2v3.31h-7.2v12.29c0,2.11.62,3.22,2.5,3.22,1.39,0,2.3-1.25,3.22-4l2.45,0.86c-1.15,4.75-3.65,6.77-7.3,6.77-4.32,0-6.48-2.4-6.48-6.67V114.78h-4.18v-3.31h4.27v-5.38Z" transform="translate(-73.89 -100.09)"/></svg>